<svg width="100" height="100" viewBox="0 0 100 100" fill="none" xmlns="http://www.w3.org/2000/svg">
<circle cx="50" cy="50" r="50" fill="#54FFC4"/>
<path d="M59.5872 38.3509L38.6567 30.6516L47.6194 57.8229L67.6301 64.0481L59.5872 38.3509ZM48.3692 57.0604L42.8515 40.3328L53.3147 44.1869L58.6734 60.266L48.3692 57.0604ZM54.0703 43.4617L42.4757 39.1896L40.1765 32.2182L58.8312 39.081L66.1949 62.6091L59.7893 60.6165L54.0703 43.4617Z" fill="#1E2CFB"/>
<path d="M64.0291 32.6443L29.5049 19.8748L22.1788 25.1681L36.0954 69.6486L70.1591 79.7838L77.716 74.3276L64.0291 32.6443ZM23.2885 25.5347L29.3317 21.168L43.2439 63.5068L36.7238 68.4784L23.2885 25.5347ZM44.1705 63.2966L30.3378 21.193L63.2724 33.3732L76.4178 73.4155L44.1705 63.2966ZM69.9806 78.739L37.4979 69.07L43.886 64.1996L76.1131 74.3051L69.9806 78.739Z" fill="#1E2CFB"/>
<path d="M36.7238 68.4784L23.2885 25.5347L29.3317 21.168L43.2428 63.5075L36.7238 68.4784Z" fill="#1E2CFB"/>
<path d="M76.1141 74.3123L69.9826 78.7425L37.5013 69.0758L43.8894 64.2054L76.1141 74.3123Z" fill="#1E2CFB"/>
<path d="M63.2724 33.3732L30.3378 21.193L44.1746 63.3037L76.4212 73.4213L63.2724 33.3732ZM47.6193 57.8229L38.6567 30.6516L59.5872 38.3509L67.63 64.0481L47.6193 57.8229Z" fill="#F2CFFF"/>
<path d="M66.1875 62.6071L59.7819 60.6145L54.063 43.4597L42.4683 39.1876L40.1691 32.2162L58.8238 39.079L66.1875 62.6071Z" fill="#1E2CFB"/>
</svg>
